<?xml version="1.0" encoding="UTF-8"?>
<!DOCTYPE svg PUBLIC "-//W3C//DTD SVG 1.1//EN" "http://www.w3.org/Graphics/SVG/1.1/DTD/svg11.dtd">
<!-- Creator: CorelDRAW X8 -->
<svg xmlns="http://www.w3.org/2000/svg" xml:space="preserve" width="44mm" height="36mm" version="1.1" style="shape-rendering:geometricPrecision; text-rendering:geometricPrecision; image-rendering:optimizeQuality; fill-rule:evenodd; clip-rule:evenodd"
viewBox="0 0 4400 3600"
 xmlns:xlink="http://www.w3.org/1999/xlink"
 role="img">
 <defs>
  <style type="text/css">
   <![CDATA[
    .fil0 {fill:#563D7C}
   ]]>
  </style>
 </defs>
 <g id="Capa_x0020_1">
  <metadata id="CorelCorpID_0Corel-Layer"/>
  <path class="fil0" d="M2158 1661l-332 0 0 -557 394 0c214,0 336,96 336,269 0,185 -142,288 -399,288l1 0zm59 221l-391 0 0 613 408 0c268,0 409,-107 409,-308 0,-202 -145,-305 -426,-305zm2181 -194l0 224c-206,19 -333,173 -408,415 -74,242 -84,538 -76,767 8,238 -178,458 -429,458l-2570 0c-251,0 -437,-220 -428,-458 8,-229 -3,-525 -77,-767 -75,-243 -202,-396 -408,-415l0 -224c206,-19 333,-173 408,-415 74,-242 85,-538 77,-767 -9,-238 177,-458 428,-458l2570 0c251,0 437,220 429,458 -8,229 2,525 76,767 75,242 202,396 408,415zm-1452 516c0,-248 -174,-427 -434,-455l0 -11c191,-31 340,-208 340,-405 0,-282 -222,-465 -561,-465l-762 0 0 1863 766 0c407,0 651,-199 651,-526l0 -1z"/>
 </g>
</svg>
