<?xml version="1.0" encoding="UTF-8"?>
<!DOCTYPE svg PUBLIC "-//W3C//DTD SVG 1.1//EN" "http://www.w3.org/Graphics/SVG/1.1/DTD/svg11.dtd">
<!-- Creator: CorelDRAW X8 -->
<svg xmlns="http://www.w3.org/2000/svg" xml:space="preserve" width="164mm" height="160mm" version="1.1" style="shape-rendering:geometricPrecision; text-rendering:geometricPrecision; image-rendering:optimizeQuality; fill-rule:evenodd; clip-rule:evenodd"
viewBox="0 0 16400 16000"
 xmlns:xlink="http://www.w3.org/1999/xlink">
 <defs>
  <style type="text/css">
   <![CDATA[
    .fil0 {fill:#61A706}
   ]]>
  </style>
 </defs>
 <g id="Capa_x0020_1">
  <metadata id="CorelCorpID_0Corel-Layer"/>
  <g id="_1901903593360">
   <g>
    <path class="fil0" d="M1589 15020l273 87c-58,283 -160,499 -309,648 -148,149 -329,223 -543,223 -222,0 -402,-57 -541,-172 -140,-114 -245,-280 -317,-496 -72,-218 -109,-451 -109,-699 0,-272 41,-508 123,-711 82,-202 198,-356 349,-461 151,-105 318,-157 499,-157 206,0 380,66 519,199 140,133 239,319 293,559l-268 80c-48,-189 -116,-327 -207,-414 -91,-86 -205,-130 -343,-130 -158,0 -290,48 -396,144 -106,95 -181,225 -224,386 -43,162 -65,329 -65,501 0,221 26,415 77,580 51,166 130,289 238,371 107,83 223,123 348,123 153,0 282,-56 387,-167 106,-109 178,-274 216,-494l0 0z"/>
    <path class="fil0" d="M2072 14990c0,-350 77,-608 231,-777 128,-139 285,-209 470,-209 205,0 373,85 503,256 130,169 195,404 195,704 0,242 -29,433 -87,572 -57,139 -141,247 -252,325 -110,77 -230,115 -360,115 -209,0 -378,-84 -506,-254 -130,-170 -194,-414 -194,-732l0 0zm259 0c0,242 42,423 125,542 84,120 189,181 316,181 126,0 230,-61 314,-181 83,-121 125,-305 125,-552 0,-233 -42,-410 -126,-529 -84,-120 -188,-180 -313,-180 -127,0 -232,59 -316,179 -84,119 -125,299 -125,540l0 0z"/>
    <path class="fil0" d="M3764 15935l0 -1891 228 0 0 290c58,-135 111,-223 161,-266 50,-43 103,-65 163,-65 86,0 172,34 260,102l-89 296c-62,-44 -123,-66 -184,-66 -56,0 -105,21 -148,63 -44,42 -75,100 -94,175 -28,113 -42,238 -42,373l0 988 -255 0 0 1z"/>
    <path class="fil0" d="M5744 15323l262 44c-41,192 -117,343 -228,448 -111,106 -253,160 -427,160 -218,0 -391,-85 -518,-255 -128,-170 -192,-409 -192,-715 0,-317 65,-564 193,-739 130,-175 297,-263 503,-263 199,0 361,86 488,258 126,172 189,413 189,724 0,19 -1,47 -2,85l-1111 0c9,207 55,367 139,477 83,110 187,165 312,165 92,0 171,-31 237,-93 64,-61 116,-160 155,-296l0 0zm-829 -514l832 0c-11,-159 -43,-278 -96,-358 -80,-123 -185,-185 -313,-185 -116,0 -213,50 -292,148 -78,99 -122,230 -131,395l0 0z"/>
    <polygon class="fil0" points="6319,15935 6319,13327 6573,13327 6573,15935 "/>
    <path class="fil0" d="M7784 13327l759 0c171,0 301,17 391,50 120,44 225,125 310,240 87,115 151,255 197,423 44,166 67,372 67,616 0,215 -21,400 -63,555 -51,190 -124,344 -220,462 -72,89 -170,158 -292,208 -91,37 -214,55 -367,55l-781 0 0 -2609 -1 0zm418 440l0 1727 309 0c116,0 199,-9 250,-26 67,-21 124,-58 167,-108 45,-51 81,-134 109,-251 28,-117 42,-276 42,-478 0,-202 -14,-355 -42,-464 -28,-108 -67,-191 -118,-253 -50,-60 -114,-101 -191,-122 -58,-16 -172,-25 -341,-25l-185 0 0 0z"/>
    <path class="fil0" d="M9863 15935l0 -2609 876 0c220,0 380,24 479,71 100,47 180,130 240,249 59,121 90,258 90,411 0,196 -46,358 -137,485 -90,128 -225,207 -406,241 90,66 164,139 222,218 58,80 137,221 236,424l251 509 -497 0 -299 -570c-106,-202 -180,-329 -220,-382 -39,-52 -81,-89 -125,-108 -44,-20 -114,-30 -211,-30l-85 0 0 1090 -414 0 0 1zm416 -1505l308 0c200,0 324,-11 374,-32 50,-21 89,-58 117,-111 29,-52 42,-117 42,-195 0,-89 -18,-159 -55,-214 -37,-53 -89,-88 -157,-101 -34,-6 -135,-10 -303,-10l-325 0 0 663 -1 0z"/>
    <path class="fil0" d="M13796 15935l-449 0 -178 -594 -827 0 -171 594 -441 0 800 -2609 441 0 825 2609 0 0zm-762 -1034l-287 -966 -278 966 565 0 0 0z"/>
    <polygon class="fil0" points="14142,15935 13658,13327 14087,13327 14393,15118 14769,13327 15265,13327 15624,15148 15938,13327 16357,13327 15860,15935 15415,15935 15008,13985 14599,15935 "/>
   </g>
   <polygon class="fil0" points="7236,11468 7512,12573 8839,12573 9097,11449 "/>
   <path class="fil0" d="M7928 10686l50 156 32 70 320 1 38 -18 46 -109c198,-509 716,-2677 823,-3231 293,-1502 512,-3032 405,-4566 -40,-580 -149,-1227 -366,-1769 -165,-416 -414,-892 -852,-1077 -475,-202 -934,286 -1139,681 -1088,2096 -393,5710 115,7853l172 735c112,426 240,804 356,1274l0 0z"/>
   <path class="fil0" d="M7792 10792l-189 -156c-2258,-2120 -5354,-9248 -474,-10563 199,-54 158,-41 350,-50 -3834,1652 -1247,8094 313,10769l0 0z"/>
   <path class="fil0" d="M8608 10792l189 -156c2258,-2120 5354,-9248 474,-10563 -199,-54 -158,-41 -350,-50 3834,1652 1248,8094 -313,10769l0 0z"/>
   <path class="fil0" d="M5554 589c-960,447 -1698,1417 -1856,2470l-37 446 4 360 50 396 28 189c378,2081 2107,4809 3628,6254 -2103,-2806 -5278,-7246 -1817,-10115l0 0z"/>
   <path class="fil0" d="M10846 589c960,447 1698,1417 1856,2470l37 446 -5 360 -50 396 -28 189c-378,2081 -2107,4809 -3628,6254 2104,-2806 5279,-7246 1818,-10115l0 0z"/>
  </g>
 </g>
</svg>
